<svg width="24" height="24" viewBox="0 0 24 24" fill="none" xmlns="http://www.w3.org/2000/svg">
<path d="M12 0C5.37244 0 0 5.37244 0 12C0 18.6276 5.37244 24 12 24C18.6276 24 24 18.6276 24 12C24 5.37244 18.6276 0 12 0ZM15.9351 12.6686C15.4531 12.6606 15.0125 12.6746 14.4523 12.6504C14.3613 12.6463 12.9021 12.6681 12.9065 12.6946C13.0126 13.3435 12.8602 14.0329 12.8693 14.6891C12.8748 15.0715 12.9871 18.5311 12.9354 19.8073L10.0438 19.8338C10.0318 18.7471 10.0848 17.6295 10.0378 16.1964C10.0282 15.9018 10.0185 12.801 9.98423 12.6377C9.98423 12.6377 8.70624 12.6468 8.10884 12.6504C8.10884 12.6504 8.10078 11.5061 8.10078 11.119C8.10078 10.7386 8.10078 10.3588 8.10078 9.97851C8.10078 9.97851 9.59246 9.89584 10.0206 9.85867C10.0206 9.85867 10.0643 8.40702 10.1236 7.93674C10.1919 7.39965 10.1987 6.85685 10.514 6.38163C11.0919 5.51179 11.6623 4.74515 12.7248 4.51404C13.1267 4.42617 15.777 3.9052 15.8753 4.33388L15.815 6.91482C15.0944 6.91482 14.2308 6.84177 13.4953 7.38795C13.0859 7.69263 12.9728 7.94636 12.9315 8.44757C12.9068 8.73899 12.901 9.91846 12.901 9.91846C13.2894 9.97383 13.8642 9.94939 14.2817 9.91846C14.7533 9.88336 15.964 10.0084 15.964 10.0084C15.9634 10.7891 15.9322 12.5914 15.9351 12.6686Z" fill="white"/>
</svg>
