<svg width="227" height="58" viewBox="0 0 227 58" fill="none" xmlns="http://www.w3.org/2000/svg">
<path d="M63.6789 24.2042L58.9789 11.6842H58.8989C58.9255 11.9509 58.9455 12.2909 58.9589 12.7042C58.9855 13.1176 59.0055 13.5709 59.0189 14.0642C59.0322 14.5442 59.0389 15.0376 59.0389 15.5442V24.2042H57.3789V9.92419H60.0389L64.4389 21.6242H64.5189L68.9989 9.92419H71.6389V24.2042H69.8589V15.4242C69.8589 14.9576 69.8655 14.4976 69.8789 14.0442C69.8922 13.5776 69.9122 13.1442 69.9389 12.7442C69.9655 12.3309 69.9855 11.9842 69.9989 11.7042H69.9189L65.1589 24.2042H63.6789ZM79.3434 13.3042C80.6501 13.3042 81.6167 13.5909 82.2434 14.1642C82.8701 14.7376 83.1834 15.6509 83.1834 16.9042V24.2042H81.9034L81.5634 22.6842H81.4834C81.1767 23.0709 80.8567 23.3976 80.5234 23.6642C80.2034 23.9176 79.8301 24.1042 79.4034 24.2242C78.9901 24.3442 78.4834 24.4042 77.8834 24.4042C77.2434 24.4042 76.6634 24.2909 76.1434 24.0642C75.6367 23.8376 75.2367 23.4909 74.9434 23.0242C74.6501 22.5442 74.5034 21.9442 74.5034 21.2242C74.5034 20.1576 74.9234 19.3376 75.7634 18.7642C76.6034 18.1776 77.8967 17.8576 79.6434 17.8042L81.4634 17.7442V17.1042C81.4634 16.2109 81.2701 15.5909 80.8834 15.2442C80.4967 14.8976 79.9501 14.7242 79.2434 14.7242C78.6834 14.7242 78.1501 14.8109 77.6434 14.9842C77.1367 15.1442 76.6634 15.3309 76.2234 15.5442L75.6834 14.2242C76.1501 13.9709 76.7034 13.7576 77.3434 13.5842C77.9834 13.3976 78.6501 13.3042 79.3434 13.3042ZM79.8634 19.0242C78.5301 19.0776 77.6034 19.2909 77.0834 19.6642C76.5767 20.0376 76.3234 20.5642 76.3234 21.2442C76.3234 21.8442 76.5034 22.2842 76.8634 22.5642C77.2367 22.8442 77.7101 22.9842 78.2834 22.9842C79.1901 22.9842 79.9434 22.7376 80.5434 22.2442C81.1434 21.7376 81.4434 20.9642 81.4434 19.9242V18.9642L79.8634 19.0242ZM91.5943 13.2842C92.9143 13.2842 93.9743 13.7442 94.7743 14.6642C95.5877 15.5842 95.9943 16.9709 95.9943 18.8242C95.9943 20.0376 95.8077 21.0642 95.4343 21.9042C95.0743 22.7309 94.561 23.3576 93.8943 23.7842C93.241 24.1976 92.4677 24.4042 91.5743 24.4042C91.0277 24.4042 90.541 24.3309 90.1143 24.1842C89.6877 24.0376 89.321 23.8509 89.0143 23.6242C88.721 23.3842 88.4677 23.1242 88.2543 22.8442H88.1343C88.161 23.0709 88.1877 23.3576 88.2143 23.7042C88.241 24.0509 88.2543 24.3509 88.2543 24.6042V29.0042H86.4943V13.4842H87.9343L88.1743 14.9442H88.2543C88.4677 14.6376 88.721 14.3576 89.0143 14.1042C89.321 13.8509 89.681 13.6509 90.0943 13.5042C90.521 13.3576 91.021 13.2842 91.5943 13.2842ZM91.2743 14.7642C90.5543 14.7642 89.9743 14.9042 89.5343 15.1842C89.0943 15.4509 88.7743 15.8576 88.5743 16.4042C88.3743 16.9509 88.2677 17.6442 88.2543 18.4842V18.8242C88.2543 19.7042 88.3477 20.4509 88.5343 21.0642C88.721 21.6776 89.0343 22.1442 89.4743 22.4642C89.9277 22.7842 90.541 22.9442 91.3143 22.9442C91.9677 22.9442 92.501 22.7642 92.9143 22.4042C93.341 22.0442 93.6543 21.5576 93.8543 20.9442C94.0677 20.3176 94.1743 19.6042 94.1743 18.8042C94.1743 17.5776 93.9343 16.5976 93.4543 15.8642C92.9877 15.1309 92.261 14.7642 91.2743 14.7642ZM100.459 20.0242C100.459 20.1442 100.452 20.3176 100.439 20.5442C100.439 20.7576 100.432 20.9909 100.419 21.2442C100.406 21.4842 100.392 21.7176 100.379 21.9442C100.366 22.1576 100.352 22.3309 100.339 22.4642L106.079 13.4842H108.239V24.2042H106.599V17.8842C106.599 17.6709 106.599 17.3909 106.599 17.0442C106.612 16.6976 106.626 16.3576 106.639 16.0242C106.652 15.6776 106.666 15.4176 106.679 15.2442L100.979 24.2042H98.799V13.4842H100.459V20.0242ZM113.411 13.4842V17.9442H119.231V13.4842H120.991V24.2042H119.231V19.4242H113.411V24.2042H111.651V13.4842H113.411ZM128.445 13.3042C129.752 13.3042 130.718 13.5909 131.345 14.1642C131.972 14.7376 132.285 15.6509 132.285 16.9042V24.2042H131.005L130.665 22.6842H130.585C130.278 23.0709 129.958 23.3976 129.625 23.6642C129.305 23.9176 128.932 24.1042 128.505 24.2242C128.092 24.3442 127.585 24.4042 126.985 24.4042C126.345 24.4042 125.765 24.2909 125.245 24.0642C124.738 23.8376 124.338 23.4909 124.045 23.0242C123.752 22.5442 123.605 21.9442 123.605 21.2242C123.605 20.1576 124.025 19.3376 124.865 18.7642C125.705 18.1776 126.998 17.8576 128.745 17.8042L130.565 17.7442V17.1042C130.565 16.2109 130.372 15.5909 129.985 15.2442C129.598 14.8976 129.052 14.7242 128.345 14.7242C127.785 14.7242 127.252 14.8109 126.745 14.9842C126.238 15.1442 125.765 15.3309 125.325 15.5442L124.785 14.2242C125.252 13.9709 125.805 13.7576 126.445 13.5842C127.085 13.3976 127.752 13.3042 128.445 13.3042ZM128.965 19.0242C127.632 19.0776 126.705 19.2909 126.185 19.6642C125.678 20.0376 125.425 20.5642 125.425 21.2442C125.425 21.8442 125.605 22.2842 125.965 22.5642C126.338 22.8442 126.812 22.9842 127.385 22.9842C128.292 22.9842 129.045 22.7376 129.645 22.2442C130.245 21.7376 130.545 20.9642 130.545 19.9242V18.9642L128.965 19.0242ZM141.188 9.92419H142.868V17.7642C142.868 18.0976 142.861 18.4642 142.848 18.8642C142.848 19.2509 142.841 19.6376 142.828 20.0242C142.815 20.4109 142.795 20.7576 142.768 21.0642C142.755 21.3576 142.741 21.5842 142.728 21.7442H142.808L150.668 9.92419H152.668V24.2042H150.988V16.4442C150.988 16.0842 150.995 15.6976 151.008 15.2842C151.021 14.8576 151.035 14.4509 151.048 14.0642C151.075 13.6642 151.095 13.3109 151.108 13.0042C151.121 12.6976 151.135 12.4709 151.148 12.3242H151.068L143.188 24.2042H141.188V9.92419ZM164.9 16.1842C164.9 16.8509 164.7 17.3709 164.3 17.7442C163.9 18.1176 163.386 18.3709 162.76 18.5042V18.5842C163.426 18.6776 164.006 18.9176 164.5 19.3042C164.993 19.6776 165.24 20.2642 165.24 21.0642C165.24 21.5176 165.153 21.9376 164.98 22.3242C164.82 22.7109 164.566 23.0442 164.22 23.3242C163.873 23.6042 163.426 23.8242 162.88 23.9842C162.333 24.1309 161.673 24.2042 160.9 24.2042H156.28V13.4842H160.88C161.64 13.4842 162.32 13.5709 162.92 13.7442C163.533 13.9042 164.013 14.1842 164.36 14.5842C164.72 14.9709 164.9 15.5042 164.9 16.1842ZM163.42 21.0642C163.42 20.4509 163.186 20.0109 162.72 19.7442C162.253 19.4776 161.566 19.3442 160.66 19.3442H158.04V22.7842H160.7C161.58 22.7842 162.253 22.6576 162.72 22.4042C163.186 22.1376 163.42 21.6909 163.42 21.0642ZM163.12 16.4042C163.12 15.8976 162.933 15.5309 162.56 15.3042C162.2 15.0642 161.606 14.9442 160.78 14.9442H158.04V17.8842H160.46C161.326 17.8842 161.986 17.7642 162.44 17.5242C162.893 17.2842 163.12 16.9109 163.12 16.4042ZM171.863 13.3042C173.17 13.3042 174.136 13.5909 174.763 14.1642C175.39 14.7376 175.703 15.6509 175.703 16.9042V24.2042H174.423L174.083 22.6842H174.003C173.696 23.0709 173.376 23.3976 173.043 23.6642C172.723 23.9176 172.35 24.1042 171.923 24.2242C171.51 24.3442 171.003 24.4042 170.403 24.4042C169.763 24.4042 169.183 24.2909 168.663 24.0642C168.156 23.8376 167.756 23.4909 167.463 23.0242C167.17 22.5442 167.023 21.9442 167.023 21.2242C167.023 20.1576 167.443 19.3376 168.283 18.7642C169.123 18.1776 170.416 17.8576 172.163 17.8042L173.983 17.7442V17.1042C173.983 16.2109 173.79 15.5909 173.403 15.2442C173.016 14.8976 172.47 14.7242 171.763 14.7242C171.203 14.7242 170.67 14.8109 170.163 14.9842C169.656 15.1442 169.183 15.3309 168.743 15.5442L168.203 14.2242C168.67 13.9709 169.223 13.7576 169.863 13.5842C170.503 13.3976 171.17 13.3042 171.863 13.3042ZM172.383 19.0242C171.05 19.0776 170.123 19.2909 169.603 19.6642C169.096 20.0376 168.843 20.5642 168.843 21.2442C168.843 21.8442 169.023 22.2842 169.383 22.5642C169.756 22.8442 170.23 22.9842 170.803 22.9842C171.71 22.9842 172.463 22.7376 173.063 22.2442C173.663 21.7376 173.963 20.9642 173.963 19.9242V18.9642L172.383 19.0242ZM180.774 13.4842V17.9442H186.594V13.4842H188.354V24.2042H186.594V19.4242H180.774V24.2042H179.014V13.4842H180.774ZM201.068 18.8242C201.068 19.7176 200.948 20.5109 200.708 21.2042C200.482 21.8842 200.148 22.4642 199.708 22.9442C199.282 23.4242 198.755 23.7909 198.128 24.0442C197.515 24.2842 196.828 24.4042 196.068 24.4042C195.362 24.4042 194.708 24.2842 194.108 24.0442C193.508 23.7909 192.988 23.4242 192.548 22.9442C192.108 22.4642 191.762 21.8842 191.508 21.2042C191.268 20.5109 191.148 19.7176 191.148 18.8242C191.148 17.6376 191.348 16.6376 191.748 15.8242C192.148 14.9976 192.722 14.3709 193.468 13.9442C194.215 13.5042 195.102 13.2842 196.128 13.2842C197.102 13.2842 197.955 13.5042 198.688 13.9442C199.435 14.3709 200.015 14.9976 200.428 15.8242C200.855 16.6376 201.068 17.6376 201.068 18.8242ZM192.968 18.8242C192.968 19.6642 193.075 20.3976 193.288 21.0242C193.515 21.6376 193.862 22.1109 194.328 22.4442C194.795 22.7776 195.388 22.9442 196.108 22.9442C196.828 22.9442 197.422 22.7776 197.888 22.4442C198.355 22.1109 198.695 21.6376 198.908 21.0242C199.135 20.3976 199.248 19.6642 199.248 18.8242C199.248 17.9709 199.135 17.2442 198.908 16.6442C198.682 16.0442 198.335 15.5842 197.868 15.2642C197.415 14.9309 196.822 14.7642 196.088 14.7642C194.995 14.7642 194.202 15.1242 193.708 15.8442C193.215 16.5642 192.968 17.5576 192.968 18.8242ZM212.478 16.1842C212.478 16.8509 212.278 17.3709 211.878 17.7442C211.478 18.1176 210.964 18.3709 210.338 18.5042V18.5842C211.004 18.6776 211.584 18.9176 212.078 19.3042C212.571 19.6776 212.818 20.2642 212.818 21.0642C212.818 21.5176 212.731 21.9376 212.558 22.3242C212.398 22.7109 212.144 23.0442 211.798 23.3242C211.451 23.6042 211.004 23.8242 210.458 23.9842C209.911 24.1309 209.251 24.2042 208.478 24.2042H203.858V13.4842H208.458C209.218 13.4842 209.898 13.5709 210.498 13.7442C211.111 13.9042 211.591 14.1842 211.938 14.5842C212.298 14.9709 212.478 15.5042 212.478 16.1842ZM210.998 21.0642C210.998 20.4509 210.764 20.0109 210.298 19.7442C209.831 19.4776 209.144 19.3442 208.238 19.3442H205.618V22.7842H208.278C209.158 22.7842 209.831 22.6576 210.298 22.4042C210.764 22.1376 210.998 21.6909 210.998 21.0642ZM210.698 16.4042C210.698 15.8976 210.511 15.5309 210.138 15.3042C209.778 15.0642 209.184 14.9442 208.358 14.9442H205.618V17.8842H208.038C208.904 17.8842 209.564 17.7642 210.018 17.5242C210.471 17.2842 210.698 16.9109 210.698 16.4042ZM224.701 18.8242C224.701 19.7176 224.581 20.5109 224.341 21.2042C224.114 21.8842 223.781 22.4642 223.341 22.9442C222.914 23.4242 222.388 23.7909 221.761 24.0442C221.148 24.2842 220.461 24.4042 219.701 24.4042C218.994 24.4042 218.341 24.2842 217.741 24.0442C217.141 23.7909 216.621 23.4242 216.181 22.9442C215.741 22.4642 215.394 21.8842 215.141 21.2042C214.901 20.5109 214.781 19.7176 214.781 18.8242C214.781 17.6376 214.981 16.6376 215.381 15.8242C215.781 14.9976 216.354 14.3709 217.101 13.9442C217.848 13.5042 218.734 13.2842 219.761 13.2842C220.734 13.2842 221.588 13.5042 222.321 13.9442C223.068 14.3709 223.648 14.9976 224.061 15.8242C224.488 16.6376 224.701 17.6376 224.701 18.8242ZM216.601 18.8242C216.601 19.6642 216.708 20.3976 216.921 21.0242C217.148 21.6376 217.494 22.1109 217.961 22.4442C218.428 22.7776 219.021 22.9442 219.741 22.9442C220.461 22.9442 221.054 22.7776 221.521 22.4442C221.988 22.1109 222.328 21.6376 222.541 21.0242C222.768 20.3976 222.881 19.6642 222.881 18.8242C222.881 17.9709 222.768 17.2442 222.541 16.6442C222.314 16.0442 221.968 15.5842 221.501 15.2642C221.048 14.9309 220.454 14.7642 219.721 14.7642C218.628 14.7642 217.834 15.1242 217.341 15.8442C216.848 16.5642 216.601 17.5576 216.601 18.8242Z" fill="#363449"/>
<path d="M60.2378 32.4642C59.7818 32.4642 59.3698 32.5442 59.0018 32.7042C58.6338 32.8562 58.3218 33.0842 58.0658 33.3882C57.8098 33.6842 57.6138 34.0482 57.4778 34.4802C57.3418 34.9042 57.2738 35.3842 57.2738 35.9202C57.2738 36.6242 57.3818 37.2362 57.5978 37.7562C57.8218 38.2762 58.1498 38.6762 58.5818 38.9562C59.0218 39.2362 59.5698 39.3762 60.2258 39.3762C60.6018 39.3762 60.9578 39.3442 61.2938 39.2802C61.6298 39.2162 61.9578 39.1362 62.2778 39.0402V39.9762C61.9578 40.0962 61.6258 40.1842 61.2818 40.2402C60.9458 40.2962 60.5418 40.3242 60.0698 40.3242C59.1978 40.3242 58.4698 40.1442 57.8858 39.7842C57.3018 39.4242 56.8618 38.9122 56.5658 38.2482C56.2778 37.5842 56.1338 36.8042 56.1338 35.9082C56.1338 35.2602 56.2218 34.6682 56.3978 34.1322C56.5818 33.5962 56.8458 33.1322 57.1898 32.7402C57.5418 32.3482 57.9738 32.0482 58.4858 31.8402C58.9978 31.6242 59.5858 31.5162 60.2498 31.5162C60.6898 31.5162 61.1138 31.5602 61.5218 31.6482C61.9298 31.7362 62.2938 31.8602 62.6138 32.0202L62.1818 32.9322C61.9178 32.8122 61.6218 32.7042 61.2938 32.6082C60.9738 32.5122 60.6218 32.4642 60.2378 32.4642ZM66.4878 33.6522C67.0398 33.6522 67.5118 33.7722 67.9038 34.0122C68.3038 34.2522 68.6078 34.5922 68.8158 35.0322C69.0318 35.4642 69.1398 35.9722 69.1398 36.5562V37.1922H64.7358C64.7518 37.9202 64.9358 38.4762 65.2878 38.8602C65.6478 39.2362 66.1478 39.4242 66.7878 39.4242C67.1958 39.4242 67.5558 39.3882 67.8678 39.3162C68.1878 39.2362 68.5158 39.1242 68.8518 38.9802V39.9042C68.5238 40.0482 68.1998 40.1522 67.8798 40.2162C67.5598 40.2882 67.1798 40.3242 66.7398 40.3242C66.1318 40.3242 65.5918 40.2002 65.1198 39.9522C64.6558 39.7042 64.2918 39.3362 64.0278 38.8482C63.7718 38.3522 63.6438 37.7482 63.6438 37.0362C63.6438 36.3322 63.7598 35.7282 63.9918 35.2242C64.2318 34.7202 64.5638 34.3322 64.9878 34.0602C65.4198 33.7882 65.9198 33.6522 66.4878 33.6522ZM66.4758 34.5162C65.9718 34.5162 65.5718 34.6802 65.2758 35.0082C64.9878 35.3282 64.8158 35.7762 64.7598 36.3522H68.0358C68.0358 35.9842 67.9798 35.6642 67.8678 35.3922C67.7558 35.1202 67.5838 34.9082 67.3518 34.7562C67.1278 34.5962 66.8358 34.5162 66.4758 34.5162ZM77.6772 33.7722V40.2042H76.7292V36.1002C76.7292 35.9322 76.7332 35.7562 76.7412 35.5722C76.7572 35.3882 76.7732 35.2082 76.7892 35.0322H76.7532L74.6532 40.2042H73.7652L71.7252 35.0322H71.6892C71.7052 35.2082 71.7132 35.3882 71.7132 35.5722C71.7212 35.7562 71.7252 35.9442 71.7252 36.1362V40.2042H70.7772V33.7722H72.1812L74.2092 38.9442L76.2732 33.7722H77.6772ZM82.2143 33.6522C82.7663 33.6522 83.2383 33.7722 83.6303 34.0122C84.0303 34.2522 84.3343 34.5922 84.5423 35.0322C84.7583 35.4642 84.8663 35.9722 84.8663 36.5562V37.1922H80.4623C80.4783 37.9202 80.6623 38.4762 81.0143 38.8602C81.3743 39.2362 81.8743 39.4242 82.5143 39.4242C82.9223 39.4242 83.2823 39.3882 83.5943 39.3162C83.9143 39.2362 84.2423 39.1242 84.5783 38.9802V39.9042C84.2503 40.0482 83.9263 40.1522 83.6063 40.2162C83.2863 40.2882 82.9063 40.3242 82.4663 40.3242C81.8583 40.3242 81.3183 40.2002 80.8463 39.9522C80.3823 39.7042 80.0183 39.3362 79.7543 38.8482C79.4983 38.3522 79.3703 37.7482 79.3703 37.0362C79.3703 36.3322 79.4863 35.7282 79.7183 35.2242C79.9583 34.7202 80.2903 34.3322 80.7143 34.0602C81.1463 33.7882 81.6463 33.6522 82.2143 33.6522ZM82.2023 34.5162C81.6983 34.5162 81.2983 34.6802 81.0023 35.0082C80.7143 35.3282 80.5423 35.7762 80.4863 36.3522H83.7623C83.7623 35.9842 83.7063 35.6642 83.5943 35.3922C83.4823 35.1202 83.3103 34.9082 83.0783 34.7562C82.8543 34.5962 82.5623 34.5162 82.2023 34.5162ZM91.7118 31.1082C91.6798 31.5082 91.5798 31.8442 91.4118 32.1162C91.2518 32.3882 91.0118 32.5922 90.6918 32.7282C90.3718 32.8642 89.9558 32.9322 89.4438 32.9322C88.9238 32.9322 88.5038 32.8642 88.1838 32.7282C87.8718 32.5922 87.6438 32.3922 87.4998 32.1282C87.3558 31.8562 87.2678 31.5162 87.2358 31.1082H88.2198C88.2598 31.5402 88.3718 31.8322 88.5558 31.9842C88.7478 32.1282 89.0518 32.2002 89.4678 32.2002C89.8358 32.2002 90.1238 32.1242 90.3318 31.9722C90.5478 31.8122 90.6758 31.5242 90.7158 31.1082H91.7118ZM87.4998 37.6962C87.4998 37.7682 87.4958 37.8722 87.4878 38.0082C87.4878 38.1362 87.4838 38.2762 87.4758 38.4282C87.4678 38.5722 87.4598 38.7122 87.4518 38.8482C87.4438 38.9762 87.4358 39.0802 87.4278 39.1602L90.8718 33.7722H92.1678V40.2042H91.1838V36.4122C91.1838 36.2842 91.1838 36.1162 91.1838 35.9082C91.1918 35.7002 91.1998 35.4962 91.2078 35.2962C91.2158 35.0882 91.2238 34.9322 91.2318 34.8282L87.8118 40.2042H86.5038V33.7722H87.4998V37.6962ZM95.2707 33.7722V36.4482H98.7627V33.7722H99.8187V40.2042H98.7627V37.3362H95.2707V40.2042H94.2147V33.7722H95.2707ZM101.855 40.2042V33.7722H102.911V36.4122H104.579C105.139 36.4122 105.599 36.4802 105.959 36.6162C106.319 36.7522 106.587 36.9562 106.763 37.2282C106.939 37.4922 107.027 37.8282 107.027 38.2362C107.027 38.6362 106.939 38.9842 106.763 39.2802C106.595 39.5762 106.327 39.8042 105.959 39.9642C105.599 40.1242 105.123 40.2042 104.531 40.2042H101.855ZM104.435 39.3522C104.891 39.3522 105.263 39.2762 105.551 39.1242C105.839 38.9642 105.983 38.6882 105.983 38.2962C105.983 37.9042 105.851 37.6402 105.587 37.5042C105.323 37.3602 104.943 37.2882 104.447 37.2882H102.911V39.3522H104.435ZM108.095 40.2042V33.7722H109.151V40.2042H108.095ZM116.403 31.1082C116.371 31.5082 116.271 31.8442 116.103 32.1162C115.943 32.3882 115.703 32.5922 115.383 32.7282C115.063 32.8642 114.647 32.9322 114.135 32.9322C113.615 32.9322 113.195 32.8642 112.875 32.7282C112.563 32.5922 112.335 32.3922 112.191 32.1282C112.047 31.8562 111.959 31.5162 111.927 31.1082H112.911C112.951 31.5402 113.063 31.8322 113.247 31.9842C113.439 32.1282 113.743 32.2002 114.159 32.2002C114.527 32.2002 114.815 32.1242 115.023 31.9722C115.239 31.8122 115.367 31.5242 115.407 31.1082H116.403ZM112.191 37.6962C112.191 37.7682 112.187 37.8722 112.179 38.0082C112.179 38.1362 112.175 38.2762 112.167 38.4282C112.159 38.5722 112.151 38.7122 112.143 38.8482C112.135 38.9762 112.127 39.0802 112.119 39.1602L115.563 33.7722H116.859V40.2042H115.875V36.4122C115.875 36.2842 115.875 36.1162 115.875 35.9082C115.883 35.7002 115.891 35.4962 115.899 35.2962C115.907 35.0882 115.915 34.9322 115.923 34.8282L112.503 40.2042H111.195V33.7722H112.191V37.6962ZM127.541 33.7722V40.2042H126.485V34.6722H123.161V40.2042H122.105V33.7722H127.541ZM132.174 40.3242C131.606 40.3242 131.098 40.2082 130.65 39.9762C130.21 39.7442 129.862 39.3842 129.606 38.8962C129.358 38.4082 129.234 37.7842 129.234 37.0242C129.234 36.2322 129.366 35.5882 129.63 35.0922C129.894 34.5962 130.25 34.2322 130.698 34.0002C131.154 33.7682 131.67 33.6522 132.246 33.6522C132.574 33.6522 132.89 33.6882 133.194 33.7602C133.498 33.8242 133.746 33.9042 133.938 34.0002L133.614 34.8762C133.422 34.8042 133.198 34.7362 132.942 34.6722C132.686 34.6082 132.446 34.5762 132.222 34.5762C131.79 34.5762 131.434 34.6682 131.154 34.8522C130.874 35.0362 130.666 35.3082 130.53 35.6682C130.394 36.0282 130.326 36.4762 130.326 37.0122C130.326 37.5242 130.394 37.9602 130.53 38.3202C130.666 38.6802 130.87 38.9522 131.142 39.1362C131.414 39.3202 131.754 39.4122 132.162 39.4122C132.514 39.4122 132.822 39.3762 133.086 39.3042C133.358 39.2322 133.606 39.1442 133.83 39.0402V39.9762C133.614 40.0882 133.374 40.1722 133.11 40.2282C132.854 40.2922 132.542 40.3242 132.174 40.3242ZM136.355 37.6962C136.355 37.7682 136.351 37.8722 136.343 38.0082C136.343 38.1362 136.339 38.2762 136.331 38.4282C136.323 38.5722 136.315 38.7122 136.307 38.8482C136.299 38.9762 136.291 39.0802 136.283 39.1602L139.727 33.7722H141.023V40.2042H140.039V36.4122C140.039 36.2842 140.039 36.1162 140.039 35.9082C140.047 35.7002 140.055 35.4962 140.063 35.2962C140.071 35.0882 140.079 34.9322 140.087 34.8282L136.667 40.2042H135.359V33.7722H136.355V37.6962ZM144.594 36.9162L142.374 33.7722H143.574L145.23 36.1962L146.874 33.7722H148.062L145.842 36.9162L148.182 40.2042H146.982L145.23 37.6362L143.454 40.2042H142.266L144.594 36.9162ZM154.779 36.9762C154.779 37.5122 154.707 37.9882 154.563 38.4042C154.427 38.8122 154.227 39.1602 153.963 39.4482C153.707 39.7362 153.391 39.9562 153.015 40.1082C152.647 40.2522 152.235 40.3242 151.779 40.3242C151.355 40.3242 150.963 40.2522 150.603 40.1082C150.243 39.9562 149.931 39.7362 149.667 39.4482C149.403 39.1602 149.195 38.8122 149.043 38.4042C148.899 37.9882 148.827 37.5122 148.827 36.9762C148.827 36.2642 148.947 35.6642 149.187 35.1762C149.427 34.6802 149.771 34.3042 150.219 34.0482C150.667 33.7842 151.199 33.6522 151.815 33.6522C152.399 33.6522 152.911 33.7842 153.351 34.0482C153.799 34.3042 154.147 34.6802 154.395 35.1762C154.651 35.6642 154.779 36.2642 154.779 36.9762ZM149.919 36.9762C149.919 37.4802 149.983 37.9202 150.111 38.2962C150.247 38.6642 150.455 38.9482 150.735 39.1482C151.015 39.3482 151.371 39.4482 151.803 39.4482C152.235 39.4482 152.591 39.3482 152.871 39.1482C153.151 38.9482 153.355 38.6642 153.483 38.2962C153.619 37.9202 153.687 37.4802 153.687 36.9762C153.687 36.4642 153.619 36.0282 153.483 35.6682C153.347 35.3082 153.139 35.0322 152.859 34.8402C152.587 34.6402 152.231 34.5402 151.791 34.5402C151.135 34.5402 150.659 34.7562 150.363 35.1882C150.067 35.6202 149.919 36.2162 149.919 36.9762ZM161.349 40.2042H160.281V34.6482H158.385C158.305 35.6642 158.205 36.5322 158.085 37.2522C157.965 37.9642 157.813 38.5442 157.629 38.9922C157.445 39.4402 157.225 39.7682 156.969 39.9762C156.713 40.1842 156.413 40.2882 156.069 40.2882C155.965 40.2882 155.861 40.2802 155.757 40.2642C155.661 40.2562 155.581 40.2362 155.517 40.2042V39.4122C155.565 39.4282 155.617 39.4402 155.673 39.4482C155.729 39.4562 155.785 39.4602 155.841 39.4602C156.017 39.4602 156.177 39.3882 156.321 39.2442C156.465 39.1002 156.593 38.8802 156.705 38.5842C156.825 38.2882 156.933 37.9162 157.029 37.4682C157.125 37.0122 157.209 36.4762 157.281 35.8602C157.353 35.2442 157.417 34.5482 157.473 33.7722H161.349V40.2042ZM168.983 36.9762C168.983 37.5122 168.911 37.9882 168.767 38.4042C168.631 38.8122 168.431 39.1602 168.167 39.4482C167.911 39.7362 167.595 39.9562 167.219 40.1082C166.851 40.2522 166.439 40.3242 165.983 40.3242C165.559 40.3242 165.167 40.2522 164.807 40.1082C164.447 39.9562 164.135 39.7362 163.871 39.4482C163.607 39.1602 163.399 38.8122 163.247 38.4042C163.103 37.9882 163.031 37.5122 163.031 36.9762C163.031 36.2642 163.151 35.6642 163.391 35.1762C163.631 34.6802 163.975 34.3042 164.423 34.0482C164.871 33.7842 165.403 33.6522 166.019 33.6522C166.603 33.6522 167.115 33.7842 167.555 34.0482C168.003 34.3042 168.351 34.6802 168.599 35.1762C168.855 35.6642 168.983 36.2642 168.983 36.9762ZM164.123 36.9762C164.123 37.4802 164.187 37.9202 164.315 38.2962C164.451 38.6642 164.659 38.9482 164.939 39.1482C165.219 39.3482 165.575 39.4482 166.007 39.4482C166.439 39.4482 166.795 39.3482 167.075 39.1482C167.355 38.9482 167.559 38.6642 167.687 38.2962C167.823 37.9202 167.891 37.4802 167.891 36.9762C167.891 36.4642 167.823 36.0282 167.687 35.6682C167.551 35.3082 167.343 35.0322 167.063 34.8402C166.791 34.6402 166.435 34.5402 165.995 34.5402C165.339 34.5402 164.863 34.7562 164.567 35.1882C164.271 35.6202 164.123 36.2162 164.123 36.9762ZM174.58 33.7722V34.6602H171.712V40.2042H170.656V33.7722H174.58Z" fill="#363449"/>
<g filter="url(#filter0_i_116_2)">
<path d="M35.4627 2.18358L19.1245 7.20807L26.2389 28.9804L42.5771 23.9559L35.4627 2.18358Z" stroke="#8FD7ED" stroke-width="3"/>
<path d="M22.2035 21.5916L6.59619 30.882L15.7114 45.2695L31.3187 35.9792L22.2035 21.5916Z" stroke="#52B9F3"/>
<path d="M41.2916 37.5348L29.7124 27.9838L20.5082 38.455L32.0875 48.006L41.2916 37.5348Z" stroke="#FFB552" stroke-width="2"/>
<path d="M34.3369 9.06473L12.3066 1.75348L4.96359 22.4731L26.9939 29.7843L34.3369 9.06473Z" stroke="#FFB552"/>
</g>
<defs>
<filter id="filter0_i_116_2" x="4.32178" y="0.316833" width="40.1548" height="53.0766" filterUnits="userSpaceOnUse" color-interpolation-filters="sRGB">
<feFlood flood-opacity="0" result="BackgroundImageFix"/>
<feBlend mode="normal" in="SourceGraphic" in2="BackgroundImageFix" result="shape"/>
<feColorMatrix in="SourceAlpha" type="matrix" values="0 0 0 0 0 0 0 0 0 0 0 0 0 0 0 0 0 0 127 0" result="hardAlpha"/>
<feOffset dy="4"/>
<feGaussianBlur stdDeviation="2"/>
<feComposite in2="hardAlpha" operator="arithmetic" k2="-1" k3="1"/>
<feColorMatrix type="matrix" values="0 0 0 0 0 0 0 0 0 0 0 0 0 0 0 0 0 0 0.25 0"/>
<feBlend mode="normal" in2="shape" result="effect1_innerShadow_116_2"/>
</filter>
</defs>
</svg>
