<svg width="32" height="32" viewBox="0 0 32 32" fill="none" xmlns="http://www.w3.org/2000/svg">
<path d="M23.4514 32C22.2063 31.9908 20.9667 31.8345 19.7582 31.5344C15.5851 30.5275 11.2878 27.9733 7.65987 24.3423C4.03195 20.7112 1.47458 16.4131 0.467711 12.244C-0.592488 7.85834 0.16366 4.10627 2.59448 1.67547L3.28854 0.981411C3.91826 0.352956 4.77158 0 5.66125 0C6.55092 0 7.40424 0.352956 8.03396 0.981411L12.0224 4.96907C12.6513 5.59858 13.0045 6.45198 13.0045 7.34177C13.0045 8.23156 12.6513 9.08496 12.0224 9.71447L9.66644 12.0697C10.7959 14.0515 12.3321 16.035 14.1476 17.8506C15.9632 19.6661 17.9483 21.2031 19.9294 22.3325L22.2846 19.9765C22.5961 19.6649 22.966 19.4176 23.3731 19.249C23.7802 19.0803 24.2166 18.9935 24.6573 18.9935C25.0979 18.9935 25.5343 19.0803 25.9414 19.249C26.3485 19.4176 26.7184 19.6649 27.03 19.9765L31.0177 23.9642C31.6467 24.5935 32 25.4468 32 26.3365C32 27.2262 31.6467 28.0795 31.0177 28.7088L30.3228 29.4028C28.6091 31.1197 26.2372 32 23.4514 32ZM5.66125 2.38625C5.53417 2.38562 5.40823 2.41035 5.29083 2.45901C5.17343 2.50766 5.06692 2.57926 4.97753 2.6696L4.28267 3.36366C2.46235 5.18398 1.93066 8.1393 2.7855 11.6804C3.69049 15.4317 6.02022 19.3294 9.34488 22.6533C12.6695 25.9771 16.5665 28.3044 20.3186 29.2126C23.8605 30.0675 26.8143 29.5358 28.6346 27.7155L29.3287 27.0214C29.51 26.8399 29.6119 26.5938 29.6119 26.3373C29.6119 26.0807 29.51 25.8347 29.3287 25.6532L25.3418 21.6655C25.1603 21.4842 24.9142 21.3823 24.6577 21.3823C24.4011 21.3823 24.155 21.4842 23.9736 21.6655L20.988 24.6511C20.8088 24.8303 20.5773 24.9479 20.3269 24.9868C20.0765 25.0258 19.8202 24.984 19.5951 24.8676C17.1475 23.602 14.6801 21.7594 12.4594 19.5388C10.2387 17.3181 8.4001 14.8523 7.13136 12.4047C7.01485 12.1797 6.97295 11.9235 7.01173 11.6731C7.05051 11.4227 7.16795 11.1911 7.34706 11.0119L10.3334 8.02628C10.5148 7.84479 10.6167 7.59873 10.6167 7.34217C10.6167 7.08561 10.5148 6.83954 10.3334 6.65806L6.34576 2.6696C6.2561 2.57941 6.14942 2.50793 6.03192 2.45929C5.91441 2.41065 5.78842 2.38582 5.66125 2.38625V2.38625Z" fill="#52B9F3"/>
<path d="M24.7261 17.6468C24.4094 17.6468 24.1057 17.5211 23.8818 17.2972C23.6579 17.0733 23.5321 16.7696 23.5321 16.4529C23.5298 14.3584 22.6968 12.3504 21.2159 10.8693C19.7349 9.38817 17.7269 8.55496 15.6324 8.55243C15.3157 8.55243 15.0121 8.42665 14.7882 8.20274C14.5643 7.97884 14.4385 7.67517 14.4385 7.35852C14.4385 7.04188 14.5643 6.7382 14.7882 6.5143C15.0121 6.2904 15.3157 6.16461 15.6324 6.16461C21.3051 6.16461 25.92 10.7811 25.92 16.4529C25.92 16.7696 25.7942 17.0733 25.5703 17.2972C25.3464 17.5211 25.0427 17.6468 24.7261 17.6468Z" fill="#52B9F3"/>
<path d="M29.7724 17.6468C29.4557 17.6468 29.152 17.521 28.9281 17.2971C28.7042 17.0732 28.5784 16.7695 28.5784 16.4529C28.5784 9.31408 22.768 3.50611 15.6324 3.50611C15.3157 3.50611 15.0121 3.38032 14.7882 3.15642C14.5643 2.93252 14.4385 2.62884 14.4385 2.3122C14.4385 1.99555 14.5643 1.69188 14.7882 1.46797C15.0121 1.24407 15.3157 1.11829 15.6324 1.11829C24.0877 1.11829 30.9663 7.9976 30.9663 16.4529C30.9663 16.7695 30.8405 17.0732 30.6166 17.2971C30.3927 17.521 30.089 17.6468 29.7724 17.6468Z" fill="#52B9F3"/>
</svg>
