<svg width="24" height="24" viewBox="0 0 24 24" fill="none" xmlns="http://www.w3.org/2000/svg">
<circle cx="12" cy="12" r="12" fill="white"/>
<path fill-rule="evenodd" clip-rule="evenodd" d="M9.24531 16.1083C9.51423 16.2442 9.81373 16.3151 10.1178 16.315C11.1305 16.315 11.9572 15.5438 11.9945 14.5827L11.9983 6H14.2352C14.2354 6.18229 14.2532 6.36418 14.2881 6.54338H12.6502V6.54368H14.8875C14.8872 7.26198 15.1591 7.956 15.6529 8.49686L15.6536 8.49755C16.1573 8.81255 16.7461 8.98003 17.3477 8.97949V9.45643C17.5583 9.4996 17.7761 9.52259 18 9.52259V11.6645C16.8832 11.6658 15.7942 11.3306 14.8875 10.7064V15.0585C14.8875 17.2317 13.0403 19 10.7697 19C10.2043 19.0001 9.64491 18.8885 9.12665 18.672C8.60876 18.4557 8.14312 18.1394 7.75881 17.7429L7.75796 17.7423C6.69609 17.0287 6 15.8484 6 14.5151C6 12.3416 7.84723 10.573 10.1178 10.573C10.3034 10.5739 10.4888 10.5868 10.6727 10.6117V11.1188C10.6856 11.1185 10.6984 11.1181 10.7113 11.1177C10.7307 11.117 10.7501 11.1164 10.7697 11.1164C10.9554 11.1172 11.1408 11.1302 11.3246 11.1551V13.3414C11.1492 13.2887 10.9635 13.258 10.7697 13.258C10.2711 13.2586 9.79305 13.4485 9.4405 13.786C9.08795 14.1236 8.88967 14.5812 8.88919 15.0585C8.88922 15.4355 9.01368 15.8028 9.24483 16.1081L9.24531 16.1083ZM6.92354 16.4649C7.11465 16.9416 7.39985 17.3739 7.75705 17.7414C7.39258 17.368 7.11114 16.9338 6.92354 16.4649Z" fill="#52B9F3"/>
</svg>
