<svg width="24" height="24" viewBox="0 0 24 24" fill="none" xmlns="http://www.w3.org/2000/svg">
<path fill-rule="evenodd" clip-rule="evenodd" d="M0 12C0 5.3726 5.3726 0 12 0C18.6274 0 24 5.3726 24 12C24 18.6274 18.6274 24 12 24C5.3726 24 0 18.6274 0 12ZM12.0006 5.6C10.2625 5.6 10.0443 5.6076 9.36165 5.63865C8.6803 5.66985 8.21525 5.77775 7.8083 5.936C7.38735 6.09945 7.0303 6.31815 6.67455 6.674C6.31855 7.02975 6.09985 7.3868 5.93585 7.8076C5.7772 8.2147 5.6692 8.6799 5.63855 9.36095C5.608 10.0437 5.6 10.2619 5.6 12C5.6 13.7382 5.60775 13.9557 5.63865 14.6383C5.67 15.3197 5.77785 15.7847 5.936 16.1917C6.0996 16.6126 6.31825 16.9697 6.67415 17.3255C7.02975 17.6815 7.3868 17.9007 7.8075 18.0641C8.2147 18.2224 8.6799 18.3302 9.3611 18.3615C10.0438 18.3925 10.2618 18.4002 11.9998 18.4002C13.7381 18.4002 13.9556 18.3925 14.6383 18.3615C15.3196 18.3302 15.7851 18.2224 16.1924 18.0641C16.6132 17.9007 16.9697 17.6815 17.3253 17.3255C17.6813 16.9697 17.9 16.6126 18.064 16.1919C18.2213 15.7848 18.3293 15.3196 18.3613 14.6385C18.392 13.9558 18.4 13.7382 18.4 12C18.4 10.2619 18.392 10.0438 18.3613 9.3611C18.3293 8.67975 18.2213 8.2147 18.064 7.80775C17.9 7.3868 17.6813 7.02975 17.3253 6.674C16.9693 6.318 16.6133 6.09935 16.192 5.936C15.7839 5.77775 15.3186 5.66985 14.6373 5.63865C13.9546 5.6076 13.7373 5.6 11.9986 5.6H12.0006Z" fill="white"/>
<path fill-rule="evenodd" clip-rule="evenodd" d="M11.4265 6.75355C11.5969 6.7533 11.787 6.75355 12.0006 6.75355C13.7094 6.75355 13.912 6.7597 14.5868 6.79035C15.2108 6.8189 15.5495 6.92315 15.7751 7.01075C16.0737 7.12675 16.2867 7.2654 16.5105 7.4894C16.7345 7.7134 16.8732 7.92675 16.9895 8.22545C17.0771 8.45075 17.1815 8.78945 17.2099 9.41345C17.2405 10.0881 17.2472 10.2908 17.2472 11.9988C17.2472 13.7068 17.2405 13.9095 17.2099 14.5842C17.1813 15.2082 17.0771 15.5469 16.9895 15.7722C16.8735 16.0709 16.7345 16.2835 16.5105 16.5074C16.2865 16.7314 16.0739 16.8701 15.7751 16.9861C15.5497 17.0741 15.2108 17.1781 14.5868 17.2066C13.9121 17.2373 13.7094 17.2439 12.0006 17.2439C10.2917 17.2439 10.0891 17.2373 9.41446 17.2066C8.79046 17.1778 8.45176 17.0735 8.22606 16.9859C7.92736 16.8699 7.71401 16.7313 7.49001 16.5073C7.26601 16.2833 7.12736 16.0705 7.01111 15.7717C6.92351 15.5463 6.81911 15.2077 6.79071 14.5837C6.76001 13.909 6.75391 13.7063 6.75391 11.9972C6.75391 10.2881 6.76001 10.0865 6.79071 9.41185C6.81921 8.78785 6.92351 8.44915 7.01111 8.22355C7.12711 7.9249 7.26601 7.71155 7.49001 7.48755C7.71401 7.26355 7.92736 7.1249 8.22606 7.0086C8.45166 6.9206 8.79046 6.8166 9.41446 6.78795C10.0049 6.7613 10.2337 6.7533 11.4265 6.75195V6.75355ZM15.4169 7.8162C14.9929 7.8162 14.6489 8.15985 14.6489 8.58395C14.6489 9.00795 14.9929 9.35195 15.4169 9.35195C15.8409 9.35195 16.1849 9.00795 16.1849 8.58395C16.1849 8.15995 15.8409 7.8162 15.4169 7.8162ZM12.0006 8.71355C10.1855 8.71355 8.71391 10.1852 8.71391 12.0003C8.71391 13.8154 10.1855 15.2863 12.0006 15.2863C13.8157 15.2863 15.2868 13.8154 15.2868 12.0003C15.2868 10.1852 13.8157 8.71355 12.0006 8.71355Z" fill="white"/>
<path fill-rule="evenodd" clip-rule="evenodd" d="M12.0005 9.8667C13.1787 9.8667 14.1339 10.8218 14.1339 12C14.1339 13.1782 13.1787 14.1334 12.0005 14.1334C10.8222 14.1334 9.86719 13.1782 9.86719 12C9.86719 10.8218 10.8222 9.8667 12.0005 9.8667Z" fill="white"/>
</svg>
