<svg width="222" height="50" viewBox="0 0 222 50" fill="none" xmlns="http://www.w3.org/2000/svg">
<path d="M59.6089 24.0246L54.9089 11.5046H54.8289C54.8555 11.7713 54.8755 12.1113 54.8889 12.5246C54.9155 12.9379 54.9355 13.3913 54.9489 13.8846C54.9622 14.3646 54.9689 14.8579 54.9689 15.3646V24.0246H53.3089V9.7446H55.9689L60.3689 21.4446H60.4489L64.9289 9.7446H67.5689V24.0246H65.7889V15.2446C65.7889 14.7779 65.7955 14.3179 65.8089 13.8646C65.8222 13.3979 65.8422 12.9646 65.8689 12.5646C65.8955 12.1513 65.9155 11.8046 65.9289 11.5246H65.8489L61.0889 24.0246H59.6089ZM75.2734 13.1246C76.5801 13.1246 77.5467 13.4113 78.1734 13.9846C78.8001 14.5579 79.1134 15.4713 79.1134 16.7246V24.0246H77.8334L77.4934 22.5046H77.4134C77.1067 22.8913 76.7867 23.2179 76.4534 23.4846C76.1334 23.7379 75.7601 23.9246 75.3334 24.0446C74.9201 24.1646 74.4134 24.2246 73.8134 24.2246C73.1734 24.2246 72.5934 24.1113 72.0734 23.8846C71.5667 23.6579 71.1667 23.3113 70.8734 22.8446C70.5801 22.3646 70.4334 21.7646 70.4334 21.0446C70.4334 19.9779 70.8534 19.1579 71.6934 18.5846C72.5334 17.9979 73.8267 17.6779 75.5734 17.6246L77.3934 17.5646V16.9246C77.3934 16.0313 77.2001 15.4113 76.8134 15.0646C76.4267 14.7179 75.8801 14.5446 75.1734 14.5446C74.6134 14.5446 74.0801 14.6313 73.5734 14.8046C73.0667 14.9646 72.5934 15.1513 72.1534 15.3646L71.6134 14.0446C72.0801 13.7913 72.6334 13.5779 73.2734 13.4046C73.9134 13.2179 74.5801 13.1246 75.2734 13.1246ZM75.7934 18.8446C74.4601 18.8979 73.5334 19.1113 73.0134 19.4846C72.5067 19.8579 72.2534 20.3846 72.2534 21.0646C72.2534 21.6646 72.4334 22.1046 72.7934 22.3846C73.1667 22.6646 73.6401 22.8046 74.2134 22.8046C75.1201 22.8046 75.8734 22.5579 76.4734 22.0646C77.0734 21.5579 77.3734 20.7846 77.3734 19.7446V18.7846L75.7934 18.8446ZM87.5243 13.1046C88.8443 13.1046 89.9043 13.5646 90.7043 14.4846C91.5177 15.4046 91.9243 16.7913 91.9243 18.6446C91.9243 19.8579 91.7377 20.8846 91.3643 21.7246C91.0043 22.5513 90.491 23.1779 89.8243 23.6046C89.171 24.0179 88.3977 24.2246 87.5043 24.2246C86.9577 24.2246 86.471 24.1513 86.0443 24.0046C85.6177 23.8579 85.251 23.6713 84.9443 23.4446C84.651 23.2046 84.3977 22.9446 84.1843 22.6646H84.0643C84.091 22.8913 84.1177 23.1779 84.1443 23.5246C84.171 23.8713 84.1843 24.1713 84.1843 24.4246V28.8246H82.4243V13.3046H83.8643L84.1043 14.7646H84.1843C84.3977 14.4579 84.651 14.1779 84.9443 13.9246C85.251 13.6713 85.611 13.4713 86.0243 13.3246C86.451 13.1779 86.951 13.1046 87.5243 13.1046ZM87.2043 14.5846C86.4843 14.5846 85.9043 14.7246 85.4643 15.0046C85.0243 15.2713 84.7043 15.6779 84.5043 16.2246C84.3043 16.7713 84.1977 17.4646 84.1843 18.3046V18.6446C84.1843 19.5246 84.2777 20.2713 84.4643 20.8846C84.651 21.4979 84.9643 21.9646 85.4043 22.2846C85.8577 22.6046 86.471 22.7646 87.2443 22.7646C87.8977 22.7646 88.431 22.5846 88.8443 22.2246C89.271 21.8646 89.5843 21.3779 89.7843 20.7646C89.9977 20.1379 90.1043 19.4246 90.1043 18.6246C90.1043 17.3979 89.8643 16.4179 89.3843 15.6846C88.9177 14.9513 88.191 14.5846 87.2043 14.5846ZM96.389 19.8446C96.389 19.9646 96.3824 20.1379 96.369 20.3646C96.369 20.5779 96.3624 20.8113 96.349 21.0646C96.3357 21.3046 96.3224 21.5379 96.309 21.7646C96.2957 21.9779 96.2824 22.1513 96.269 22.2846L102.009 13.3046H104.169V24.0246H102.529V17.7046C102.529 17.4913 102.529 17.2113 102.529 16.8646C102.542 16.5179 102.556 16.1779 102.569 15.8446C102.582 15.4979 102.596 15.2379 102.609 15.0646L96.909 24.0246H94.729V13.3046H96.389V19.8446ZM109.341 13.3046V17.7646H115.161V13.3046H116.921V24.0246H115.161V19.2446H109.341V24.0246H107.581V13.3046H109.341ZM124.375 13.1246C125.682 13.1246 126.648 13.4113 127.275 13.9846C127.902 14.5579 128.215 15.4713 128.215 16.7246V24.0246H126.935L126.595 22.5046H126.515C126.208 22.8913 125.888 23.2179 125.555 23.4846C125.235 23.7379 124.862 23.9246 124.435 24.0446C124.022 24.1646 123.515 24.2246 122.915 24.2246C122.275 24.2246 121.695 24.1113 121.175 23.8846C120.668 23.6579 120.268 23.3113 119.975 22.8446C119.682 22.3646 119.535 21.7646 119.535 21.0446C119.535 19.9779 119.955 19.1579 120.795 18.5846C121.635 17.9979 122.928 17.6779 124.675 17.6246L126.495 17.5646V16.9246C126.495 16.0313 126.302 15.4113 125.915 15.0646C125.528 14.7179 124.982 14.5446 124.275 14.5446C123.715 14.5446 123.182 14.6313 122.675 14.8046C122.168 14.9646 121.695 15.1513 121.255 15.3646L120.715 14.0446C121.182 13.7913 121.735 13.5779 122.375 13.4046C123.015 13.2179 123.682 13.1246 124.375 13.1246ZM124.895 18.8446C123.562 18.8979 122.635 19.1113 122.115 19.4846C121.608 19.8579 121.355 20.3846 121.355 21.0646C121.355 21.6646 121.535 22.1046 121.895 22.3846C122.268 22.6646 122.742 22.8046 123.315 22.8046C124.222 22.8046 124.975 22.5579 125.575 22.0646C126.175 21.5579 126.475 20.7846 126.475 19.7446V18.7846L124.895 18.8446ZM137.118 9.7446H138.798V17.5846C138.798 17.9179 138.791 18.2846 138.778 18.6846C138.778 19.0713 138.771 19.4579 138.758 19.8446C138.745 20.2313 138.725 20.5779 138.698 20.8846C138.685 21.1779 138.671 21.4046 138.658 21.5646H138.738L146.598 9.7446H148.598V24.0246H146.918V16.2646C146.918 15.9046 146.925 15.5179 146.938 15.1046C146.951 14.6779 146.965 14.2713 146.978 13.8846C147.005 13.4846 147.025 13.1313 147.038 12.8246C147.051 12.5179 147.065 12.2913 147.078 12.1446H146.998L139.118 24.0246H137.118V9.7446ZM160.829 16.0046C160.829 16.6713 160.629 17.1913 160.229 17.5646C159.829 17.9379 159.316 18.1913 158.689 18.3246V18.4046C159.356 18.4979 159.936 18.7379 160.429 19.1246C160.923 19.4979 161.169 20.0846 161.169 20.8846C161.169 21.3379 161.083 21.7579 160.909 22.1446C160.749 22.5313 160.496 22.8646 160.149 23.1446C159.803 23.4246 159.356 23.6446 158.809 23.8046C158.263 23.9513 157.603 24.0246 156.829 24.0246H152.209V13.3046H156.809C157.569 13.3046 158.249 13.3913 158.849 13.5646C159.463 13.7246 159.943 14.0046 160.289 14.4046C160.649 14.7913 160.829 15.3246 160.829 16.0046ZM159.349 20.8846C159.349 20.2713 159.116 19.8313 158.649 19.5646C158.183 19.2979 157.496 19.1646 156.589 19.1646H153.969V22.6046H156.629C157.509 22.6046 158.183 22.4779 158.649 22.2246C159.116 21.9579 159.349 21.5113 159.349 20.8846ZM159.049 16.2246C159.049 15.7179 158.863 15.3513 158.489 15.1246C158.129 14.8846 157.536 14.7646 156.709 14.7646H153.969V17.7046H156.389C157.256 17.7046 157.916 17.5846 158.369 17.3446C158.823 17.1046 159.049 16.7313 159.049 16.2246ZM167.793 13.1246C169.1 13.1246 170.066 13.4113 170.693 13.9846C171.32 14.5579 171.633 15.4713 171.633 16.7246V24.0246H170.353L170.013 22.5046H169.933C169.626 22.8913 169.306 23.2179 168.973 23.4846C168.653 23.7379 168.28 23.9246 167.853 24.0446C167.44 24.1646 166.933 24.2246 166.333 24.2246C165.693 24.2246 165.113 24.1113 164.593 23.8846C164.086 23.6579 163.686 23.3113 163.393 22.8446C163.1 22.3646 162.953 21.7646 162.953 21.0446C162.953 19.9779 163.373 19.1579 164.213 18.5846C165.053 17.9979 166.346 17.6779 168.093 17.6246L169.913 17.5646V16.9246C169.913 16.0313 169.72 15.4113 169.333 15.0646C168.946 14.7179 168.4 14.5446 167.693 14.5446C167.133 14.5446 166.6 14.6313 166.093 14.8046C165.586 14.9646 165.113 15.1513 164.673 15.3646L164.133 14.0446C164.6 13.7913 165.153 13.5779 165.793 13.4046C166.433 13.2179 167.1 13.1246 167.793 13.1246ZM168.313 18.8446C166.98 18.8979 166.053 19.1113 165.533 19.4846C165.026 19.8579 164.773 20.3846 164.773 21.0646C164.773 21.6646 164.953 22.1046 165.313 22.3846C165.686 22.6646 166.16 22.8046 166.733 22.8046C167.64 22.8046 168.393 22.5579 168.993 22.0646C169.593 21.5579 169.893 20.7846 169.893 19.7446V18.7846L168.313 18.8446ZM176.704 13.3046V17.7646H182.524V13.3046H184.284V24.0246H182.524V19.2446H176.704V24.0246H174.944V13.3046H176.704ZM196.998 18.6446C196.998 19.5379 196.878 20.3313 196.638 21.0246C196.412 21.7046 196.078 22.2846 195.638 22.7646C195.212 23.2446 194.685 23.6113 194.058 23.8646C193.445 24.1046 192.758 24.2246 191.998 24.2246C191.292 24.2246 190.638 24.1046 190.038 23.8646C189.438 23.6113 188.918 23.2446 188.478 22.7646C188.038 22.2846 187.692 21.7046 187.438 21.0246C187.198 20.3313 187.078 19.5379 187.078 18.6446C187.078 17.4579 187.278 16.4579 187.678 15.6446C188.078 14.8179 188.652 14.1913 189.398 13.7646C190.145 13.3246 191.032 13.1046 192.058 13.1046C193.032 13.1046 193.885 13.3246 194.618 13.7646C195.365 14.1913 195.945 14.8179 196.358 15.6446C196.785 16.4579 196.998 17.4579 196.998 18.6446ZM188.898 18.6446C188.898 19.4846 189.005 20.2179 189.218 20.8446C189.445 21.4579 189.792 21.9313 190.258 22.2646C190.725 22.5979 191.318 22.7646 192.038 22.7646C192.758 22.7646 193.352 22.5979 193.818 22.2646C194.285 21.9313 194.625 21.4579 194.838 20.8446C195.065 20.2179 195.178 19.4846 195.178 18.6446C195.178 17.7913 195.065 17.0646 194.838 16.4646C194.612 15.8646 194.265 15.4046 193.798 15.0846C193.345 14.7513 192.752 14.5846 192.018 14.5846C190.925 14.5846 190.132 14.9446 189.638 15.6646C189.145 16.3846 188.898 17.3779 188.898 18.6446ZM208.408 16.0046C208.408 16.6713 208.208 17.1913 207.808 17.5646C207.408 17.9379 206.894 18.1913 206.268 18.3246V18.4046C206.934 18.4979 207.514 18.7379 208.008 19.1246C208.501 19.4979 208.748 20.0846 208.748 20.8846C208.748 21.3379 208.661 21.7579 208.488 22.1446C208.328 22.5313 208.074 22.8646 207.728 23.1446C207.381 23.4246 206.934 23.6446 206.388 23.8046C205.841 23.9513 205.181 24.0246 204.408 24.0246H199.788V13.3046H204.388C205.148 13.3046 205.828 13.3913 206.428 13.5646C207.041 13.7246 207.521 14.0046 207.868 14.4046C208.228 14.7913 208.408 15.3246 208.408 16.0046ZM206.928 20.8846C206.928 20.2713 206.694 19.8313 206.228 19.5646C205.761 19.2979 205.074 19.1646 204.168 19.1646H201.548V22.6046H204.208C205.088 22.6046 205.761 22.4779 206.228 22.2246C206.694 21.9579 206.928 21.5113 206.928 20.8846ZM206.628 16.2246C206.628 15.7179 206.441 15.3513 206.068 15.1246C205.708 14.8846 205.114 14.7646 204.288 14.7646H201.548V17.7046H203.968C204.834 17.7046 205.494 17.5846 205.948 17.3446C206.401 17.1046 206.628 16.7313 206.628 16.2246ZM220.631 18.6446C220.631 19.5379 220.511 20.3313 220.271 21.0246C220.044 21.7046 219.711 22.2846 219.271 22.7646C218.844 23.2446 218.318 23.6113 217.691 23.8646C217.078 24.1046 216.391 24.2246 215.631 24.2246C214.924 24.2246 214.271 24.1046 213.671 23.8646C213.071 23.6113 212.551 23.2446 212.111 22.7646C211.671 22.2846 211.324 21.7046 211.071 21.0246C210.831 20.3313 210.711 19.5379 210.711 18.6446C210.711 17.4579 210.911 16.4579 211.311 15.6446C211.711 14.8179 212.284 14.1913 213.031 13.7646C213.778 13.3246 214.664 13.1046 215.691 13.1046C216.664 13.1046 217.518 13.3246 218.251 13.7646C218.998 14.1913 219.578 14.8179 219.991 15.6446C220.418 16.4579 220.631 17.4579 220.631 18.6446ZM212.531 18.6446C212.531 19.4846 212.638 20.2179 212.851 20.8446C213.078 21.4579 213.424 21.9313 213.891 22.2646C214.358 22.5979 214.951 22.7646 215.671 22.7646C216.391 22.7646 216.984 22.5979 217.451 22.2646C217.918 21.9313 218.258 21.4579 218.471 20.8446C218.698 20.2179 218.811 19.4846 218.811 18.6446C218.811 17.7913 218.698 17.0646 218.471 16.4646C218.244 15.8646 217.898 15.4046 217.431 15.0846C216.978 14.7513 216.384 14.5846 215.651 14.5846C214.558 14.5846 213.764 14.9446 213.271 15.6646C212.778 16.3846 212.531 17.3779 212.531 18.6446Z" fill="#363449"/>
<path d="M56.1809 32.4577C55.7249 32.4577 55.3129 32.5377 54.9449 32.6977C54.5769 32.8497 54.2649 33.0777 54.0089 33.3817C53.7529 33.6777 53.5569 34.0417 53.4209 34.4737C53.2849 34.8977 53.2169 35.3777 53.2169 35.9137C53.2169 36.6177 53.3249 37.2297 53.5409 37.7497C53.7649 38.2697 54.0929 38.6697 54.5249 38.9497C54.9649 39.2297 55.5129 39.3697 56.1689 39.3697C56.5449 39.3697 56.9009 39.3377 57.2369 39.2737C57.5729 39.2097 57.9009 39.1297 58.2209 39.0337V39.9697C57.9009 40.0897 57.5689 40.1777 57.2249 40.2337C56.8889 40.2897 56.4849 40.3177 56.0129 40.3177C55.1409 40.3177 54.4129 40.1377 53.8289 39.7777C53.2449 39.4177 52.8049 38.9057 52.5089 38.2417C52.2209 37.5777 52.0769 36.7977 52.0769 35.9017C52.0769 35.2537 52.1649 34.6617 52.3409 34.1257C52.5249 33.5897 52.7889 33.1257 53.1329 32.7337C53.4849 32.3417 53.9169 32.0417 54.4289 31.8337C54.9409 31.6177 55.5289 31.5097 56.1929 31.5097C56.6329 31.5097 57.0569 31.5537 57.4649 31.6417C57.8729 31.7297 58.2369 31.8537 58.5569 32.0137L58.1249 32.9257C57.8609 32.8057 57.5649 32.6977 57.2369 32.6017C56.9169 32.5057 56.5649 32.4577 56.1809 32.4577ZM62.431 33.6457C62.983 33.6457 63.455 33.7657 63.847 34.0057C64.247 34.2457 64.551 34.5857 64.759 35.0257C64.975 35.4577 65.083 35.9657 65.083 36.5497V37.1857H60.679C60.695 37.9137 60.879 38.4697 61.231 38.8537C61.591 39.2297 62.091 39.4177 62.731 39.4177C63.139 39.4177 63.499 39.3817 63.811 39.3097C64.131 39.2297 64.459 39.1177 64.795 38.9737V39.8977C64.467 40.0417 64.143 40.1457 63.823 40.2097C63.503 40.2817 63.123 40.3177 62.683 40.3177C62.075 40.3177 61.535 40.1937 61.063 39.9457C60.599 39.6977 60.235 39.3297 59.971 38.8417C59.715 38.3457 59.587 37.7417 59.587 37.0297C59.587 36.3257 59.703 35.7217 59.935 35.2177C60.175 34.7137 60.507 34.3257 60.931 34.0537C61.363 33.7817 61.863 33.6457 62.431 33.6457ZM62.419 34.5097C61.915 34.5097 61.515 34.6737 61.219 35.0017C60.931 35.3217 60.759 35.7697 60.703 36.3457H63.979C63.979 35.9777 63.923 35.6577 63.811 35.3857C63.699 35.1137 63.527 34.9017 63.295 34.7497C63.071 34.5897 62.779 34.5097 62.419 34.5097ZM73.6204 33.7657V40.1977H72.6724V36.0937C72.6724 35.9257 72.6764 35.7497 72.6844 35.5657C72.7004 35.3817 72.7164 35.2017 72.7324 35.0257H72.6964L70.5964 40.1977H69.7084L67.6684 35.0257H67.6324C67.6484 35.2017 67.6564 35.3817 67.6564 35.5657C67.6644 35.7497 67.6684 35.9377 67.6684 36.1297V40.1977H66.7204V33.7657H68.1244L70.1524 38.9377L72.2164 33.7657H73.6204ZM78.1575 33.6457C78.7095 33.6457 79.1815 33.7657 79.5735 34.0057C79.9735 34.2457 80.2775 34.5857 80.4855 35.0257C80.7015 35.4577 80.8095 35.9657 80.8095 36.5497V37.1857H76.4055C76.4215 37.9137 76.6055 38.4697 76.9575 38.8537C77.3175 39.2297 77.8175 39.4177 78.4575 39.4177C78.8655 39.4177 79.2255 39.3817 79.5375 39.3097C79.8575 39.2297 80.1855 39.1177 80.5215 38.9737V39.8977C80.1935 40.0417 79.8695 40.1457 79.5495 40.2097C79.2295 40.2817 78.8495 40.3177 78.4095 40.3177C77.8015 40.3177 77.2615 40.1937 76.7895 39.9457C76.3255 39.6977 75.9615 39.3297 75.6975 38.8417C75.4415 38.3457 75.3135 37.7417 75.3135 37.0297C75.3135 36.3257 75.4295 35.7217 75.6615 35.2177C75.9015 34.7137 76.2335 34.3257 76.6575 34.0537C77.0895 33.7817 77.5895 33.6457 78.1575 33.6457ZM78.1455 34.5097C77.6415 34.5097 77.2415 34.6737 76.9455 35.0017C76.6575 35.3217 76.4855 35.7697 76.4295 36.3457H79.7055C79.7055 35.9777 79.6495 35.6577 79.5375 35.3857C79.4255 35.1137 79.2535 34.9017 79.0215 34.7497C78.7975 34.5897 78.5055 34.5097 78.1455 34.5097ZM87.655 31.1017C87.623 31.5017 87.523 31.8377 87.355 32.1097C87.195 32.3817 86.955 32.5857 86.635 32.7217C86.315 32.8577 85.899 32.9257 85.387 32.9257C84.867 32.9257 84.447 32.8577 84.127 32.7217C83.815 32.5857 83.587 32.3857 83.443 32.1217C83.299 31.8497 83.211 31.5097 83.179 31.1017H84.163C84.203 31.5337 84.315 31.8257 84.499 31.9777C84.691 32.1217 84.995 32.1937 85.411 32.1937C85.779 32.1937 86.067 32.1177 86.275 31.9657C86.491 31.8057 86.619 31.5177 86.659 31.1017H87.655ZM83.443 37.6897C83.443 37.7617 83.439 37.8657 83.431 38.0017C83.431 38.1297 83.427 38.2697 83.419 38.4217C83.411 38.5657 83.403 38.7057 83.395 38.8417C83.387 38.9697 83.379 39.0737 83.371 39.1537L86.815 33.7657H88.111V40.1977H87.127V36.4057C87.127 36.2777 87.127 36.1097 87.127 35.9017C87.135 35.6937 87.143 35.4897 87.151 35.2897C87.159 35.0817 87.167 34.9257 87.175 34.8217L83.755 40.1977H82.447V33.7657H83.443V37.6897ZM91.2139 33.7657V36.4417H94.7059V33.7657H95.7619V40.1977H94.7059V37.3297H91.2139V40.1977H90.1579V33.7657H91.2139ZM97.7985 40.1977V33.7657H98.8545V36.4057H100.523C101.083 36.4057 101.543 36.4737 101.903 36.6097C102.263 36.7457 102.531 36.9497 102.707 37.2217C102.883 37.4857 102.971 37.8217 102.971 38.2297C102.971 38.6297 102.883 38.9777 102.707 39.2737C102.539 39.5697 102.271 39.7977 101.903 39.9577C101.543 40.1177 101.067 40.1977 100.475 40.1977H97.7985ZM100.379 39.3457C100.835 39.3457 101.207 39.2697 101.495 39.1177C101.783 38.9577 101.927 38.6817 101.927 38.2897C101.927 37.8977 101.795 37.6337 101.531 37.4977C101.267 37.3537 100.887 37.2817 100.391 37.2817H98.8545V39.3457H100.379ZM104.039 40.1977V33.7657H105.095V40.1977H104.039ZM112.346 31.1017C112.314 31.5017 112.214 31.8377 112.046 32.1097C111.886 32.3817 111.646 32.5857 111.326 32.7217C111.006 32.8577 110.59 32.9257 110.078 32.9257C109.558 32.9257 109.138 32.8577 108.818 32.7217C108.506 32.5857 108.278 32.3857 108.134 32.1217C107.99 31.8497 107.902 31.5097 107.87 31.1017H108.854C108.894 31.5337 109.006 31.8257 109.19 31.9777C109.382 32.1217 109.686 32.1937 110.102 32.1937C110.47 32.1937 110.758 32.1177 110.966 31.9657C111.182 31.8057 111.31 31.5177 111.35 31.1017H112.346ZM108.134 37.6897C108.134 37.7617 108.13 37.8657 108.122 38.0017C108.122 38.1297 108.118 38.2697 108.11 38.4217C108.102 38.5657 108.094 38.7057 108.086 38.8417C108.078 38.9697 108.07 39.0737 108.062 39.1537L111.506 33.7657H112.802V40.1977H111.818V36.4057C111.818 36.2777 111.818 36.1097 111.818 35.9017C111.826 35.6937 111.834 35.4897 111.842 35.2897C111.85 35.0817 111.858 34.9257 111.866 34.8217L108.446 40.1977H107.138V33.7657H108.134V37.6897ZM123.485 33.7657V40.1977H122.429V34.6657H119.105V40.1977H118.049V33.7657H123.485ZM128.117 40.3177C127.549 40.3177 127.041 40.2017 126.593 39.9697C126.153 39.7377 125.805 39.3777 125.549 38.8897C125.301 38.4017 125.177 37.7777 125.177 37.0177C125.177 36.2257 125.309 35.5817 125.573 35.0857C125.837 34.5897 126.193 34.2257 126.641 33.9937C127.097 33.7617 127.613 33.6457 128.189 33.6457C128.517 33.6457 128.833 33.6817 129.137 33.7537C129.441 33.8177 129.689 33.8977 129.881 33.9937L129.557 34.8697C129.365 34.7977 129.141 34.7297 128.885 34.6657C128.629 34.6017 128.389 34.5697 128.165 34.5697C127.733 34.5697 127.377 34.6617 127.097 34.8457C126.817 35.0297 126.609 35.3017 126.473 35.6617C126.337 36.0217 126.269 36.4697 126.269 37.0057C126.269 37.5177 126.337 37.9537 126.473 38.3137C126.609 38.6737 126.813 38.9457 127.085 39.1297C127.357 39.3137 127.697 39.4057 128.105 39.4057C128.457 39.4057 128.765 39.3697 129.029 39.2977C129.301 39.2257 129.549 39.1377 129.773 39.0337V39.9697C129.557 40.0817 129.317 40.1657 129.053 40.2217C128.797 40.2857 128.485 40.3177 128.117 40.3177ZM132.298 37.6897C132.298 37.7617 132.294 37.8657 132.286 38.0017C132.286 38.1297 132.282 38.2697 132.274 38.4217C132.266 38.5657 132.258 38.7057 132.25 38.8417C132.242 38.9697 132.234 39.0737 132.226 39.1537L135.67 33.7657H136.966V40.1977H135.982V36.4057C135.982 36.2777 135.982 36.1097 135.982 35.9017C135.99 35.6937 135.998 35.4897 136.006 35.2897C136.014 35.0817 136.022 34.9257 136.03 34.8217L132.61 40.1977H131.302V33.7657H132.298V37.6897ZM140.537 36.9097L138.317 33.7657H139.517L141.173 36.1897L142.817 33.7657H144.005L141.785 36.9097L144.125 40.1977H142.925L141.173 37.6297L139.397 40.1977H138.209L140.537 36.9097ZM150.723 36.9697C150.723 37.5057 150.651 37.9817 150.507 38.3977C150.371 38.8057 150.171 39.1537 149.907 39.4417C149.651 39.7297 149.335 39.9497 148.959 40.1017C148.591 40.2457 148.179 40.3177 147.723 40.3177C147.299 40.3177 146.907 40.2457 146.547 40.1017C146.187 39.9497 145.875 39.7297 145.611 39.4417C145.347 39.1537 145.139 38.8057 144.987 38.3977C144.843 37.9817 144.771 37.5057 144.771 36.9697C144.771 36.2577 144.891 35.6577 145.131 35.1697C145.371 34.6737 145.715 34.2977 146.163 34.0417C146.611 33.7777 147.143 33.6457 147.759 33.6457C148.343 33.6457 148.855 33.7777 149.295 34.0417C149.743 34.2977 150.091 34.6737 150.339 35.1697C150.595 35.6577 150.723 36.2577 150.723 36.9697ZM145.863 36.9697C145.863 37.4737 145.927 37.9137 146.055 38.2897C146.191 38.6577 146.399 38.9417 146.679 39.1417C146.959 39.3417 147.315 39.4417 147.747 39.4417C148.179 39.4417 148.535 39.3417 148.815 39.1417C149.095 38.9417 149.299 38.6577 149.427 38.2897C149.563 37.9137 149.631 37.4737 149.631 36.9697C149.631 36.4577 149.563 36.0217 149.427 35.6617C149.291 35.3017 149.083 35.0257 148.803 34.8337C148.531 34.6337 148.175 34.5337 147.735 34.5337C147.079 34.5337 146.603 34.7497 146.307 35.1817C146.011 35.6137 145.863 36.2097 145.863 36.9697ZM157.292 40.1977H156.224V34.6417H154.328C154.248 35.6577 154.148 36.5257 154.028 37.2457C153.908 37.9577 153.756 38.5377 153.572 38.9857C153.388 39.4337 153.168 39.7617 152.912 39.9697C152.656 40.1777 152.356 40.2817 152.012 40.2817C151.908 40.2817 151.804 40.2737 151.7 40.2577C151.604 40.2497 151.524 40.2297 151.46 40.1977V39.4057C151.508 39.4217 151.56 39.4337 151.616 39.4417C151.672 39.4497 151.728 39.4537 151.784 39.4537C151.96 39.4537 152.12 39.3817 152.264 39.2377C152.408 39.0937 152.536 38.8737 152.648 38.5777C152.768 38.2817 152.876 37.9097 152.972 37.4617C153.068 37.0057 153.152 36.4697 153.224 35.8537C153.296 35.2377 153.36 34.5417 153.416 33.7657H157.292V40.1977ZM164.926 36.9697C164.926 37.5057 164.854 37.9817 164.71 38.3977C164.574 38.8057 164.374 39.1537 164.11 39.4417C163.854 39.7297 163.538 39.9497 163.162 40.1017C162.794 40.2457 162.382 40.3177 161.926 40.3177C161.502 40.3177 161.11 40.2457 160.75 40.1017C160.39 39.9497 160.078 39.7297 159.814 39.4417C159.55 39.1537 159.342 38.8057 159.19 38.3977C159.046 37.9817 158.974 37.5057 158.974 36.9697C158.974 36.2577 159.094 35.6577 159.334 35.1697C159.574 34.6737 159.918 34.2977 160.366 34.0417C160.814 33.7777 161.346 33.6457 161.962 33.6457C162.546 33.6457 163.058 33.7777 163.498 34.0417C163.946 34.2977 164.294 34.6737 164.542 35.1697C164.798 35.6577 164.926 36.2577 164.926 36.9697ZM160.066 36.9697C160.066 37.4737 160.13 37.9137 160.258 38.2897C160.394 38.6577 160.602 38.9417 160.882 39.1417C161.162 39.3417 161.518 39.4417 161.95 39.4417C162.382 39.4417 162.738 39.3417 163.018 39.1417C163.298 38.9417 163.502 38.6577 163.63 38.2897C163.766 37.9137 163.834 37.4737 163.834 36.9697C163.834 36.4577 163.766 36.0217 163.63 35.6617C163.494 35.3017 163.286 35.0257 163.006 34.8337C162.734 34.6337 162.378 34.5337 161.938 34.5337C161.282 34.5337 160.806 34.7497 160.51 35.1817C160.214 35.6137 160.066 36.2097 160.066 36.9697ZM170.523 33.7657V34.6537H167.655V40.1977H166.599V33.7657H170.523Z" fill="#363449"/>
<rect x="1.89495" y="0.982432" width="17.0969" height="23.0987" transform="matrix(0.955158 -0.296315 0.30814 0.95127 13.001 6.67773)" stroke="#8FD7ED" stroke-width="3"/>
<rect x="0.6946" y="0.16595" width="18.1952" height="17.1374" transform="matrix(0.857404 -0.514846 0.531796 0.846747 1.90923 31.1455)" stroke="#52B9F3"/>
<rect x="0.111581" y="1.39356" width="15.0637" height="14.0102" transform="matrix(0.768608 0.639534 -0.657027 0.754025 26.5298 26.881)" stroke="#FFB552" stroke-width="2"/>
<rect x="0.308356" y="0.630491" width="23.2223" height="22.1476" transform="matrix(0.948199 0.31744 -0.331487 0.943542 8.22009 0.865568)" stroke="#FFB552"/>
</svg>
